<svg width="162" height="192" viewBox="0 0 162 192" fill="none" xmlns="http://www.w3.org/2000/svg">
<path d="M41.8489 160.515C40.9963 160.516 40.1669 160.238 39.4875 159.723C26.1094 149.827 15.4895 136.674 8.63934 121.515C1.78919 106.357 -1.06313 89.6991 0.354059 73.1276C1.77124 56.5561 7.41073 40.6231 16.7354 26.846C26.0601 13.0689 38.7595 1.90648 53.624 -5.57806C68.4885 -13.0626 85.0232 -16.62 101.653 -15.9116C118.283 -15.2031 134.455 -10.2523 148.628 -1.53073C162.801 7.19085 174.503 19.3928 182.621 33.9129C190.738 48.4331 195 64.788 195 81.4199C194.962 96.6076 191.389 111.578 184.565 125.15C177.741 138.721 167.852 150.52 155.68 159.616C154.832 160.169 153.806 160.377 152.809 160.2C151.813 160.022 150.922 159.471 150.318 158.66C149.714 157.849 149.442 156.838 149.558 155.833C149.674 154.829 150.169 153.906 150.942 153.254C163.209 144.142 172.939 132.045 179.205 118.114C185.471 104.184 188.066 88.8824 186.741 73.6668C185.417 58.4511 180.218 43.8272 171.64 31.1864C163.061 18.5456 151.388 8.30842 137.731 1.44905C124.074 -5.41033 108.888 -8.66374 93.6167 -8.00164C78.3459 -7.33954 63.4986 -2.78395 50.4876 5.23167C37.4766 13.2473 26.7347 24.4563 19.2841 37.7921C11.8335 51.1278 7.92208 66.1468 7.9219 81.4199C7.95261 95.4021 11.2457 109.185 17.5397 121.673C23.8337 134.161 32.9552 145.011 44.1797 153.36C44.847 153.859 45.3406 154.554 45.5908 155.348C45.841 156.143 45.8352 156.995 45.5743 157.786C45.3133 158.577 44.8103 159.265 44.1364 159.755C43.4625 160.245 42.6516 160.51 41.8184 160.515H41.8489Z" fill="black"/>
<path d="M97.5 55.299C95.9627 55.299 94.4599 54.8432 93.1819 53.9895C91.9039 53.1358 90.908 51.9224 90.3204 50.503C89.7328 49.0835 89.5799 47.5218 89.8809 46.0155C90.1819 44.5091 90.9234 43.1258 92.0115 42.0407C93.0996 40.9556 94.4854 40.2174 95.9936 39.9196C97.5017 39.6218 99.0644 39.7777 100.484 40.3676C101.903 40.9575 103.116 41.9549 103.968 43.2336C104.819 44.5123 105.273 46.0148 105.27 47.5508C105.265 49.6072 104.445 51.5779 102.989 53.0305C101.532 54.4831 99.558 55.299 97.5 55.299ZM97.5 42.421C96.4839 42.4179 95.4898 42.7162 94.6436 43.2781C93.7973 43.8399 93.1369 44.6401 92.746 45.5771C92.355 46.5142 92.2512 47.5462 92.4476 48.5423C92.6439 49.5384 93.1317 50.4539 93.8491 51.1728C94.5665 51.8918 95.4812 52.3818 96.4775 52.581C97.4739 52.7802 98.5069 52.6795 99.4459 52.2917C100.385 51.9039 101.188 51.2464 101.752 50.4024C102.317 49.5585 102.619 48.5661 102.619 47.5508C102.619 46.1929 102.08 44.8904 101.12 43.9288C100.161 42.9672 98.859 42.425 97.5 42.421Z" fill="black"/>
<path d="M85.8309 130.908C85.6568 130.908 85.4845 130.873 85.3237 130.807C85.1628 130.74 85.0167 130.643 84.8937 130.52C84.7706 130.397 84.673 130.251 84.6064 130.09C84.5397 129.93 84.5055 129.757 84.5055 129.583V121.12C84.5055 120.49 84.2551 119.886 83.8094 119.441C83.3637 118.995 82.7592 118.745 82.1289 118.745C81.4986 118.745 80.8941 118.995 80.4484 119.441C80.0027 119.886 79.7523 120.49 79.7523 121.12V129.294C79.7523 129.645 79.6127 129.982 79.3641 130.231C79.1156 130.479 78.7785 130.619 78.427 130.619C78.0754 130.619 77.7383 130.479 77.4898 130.231C77.2412 129.982 77.1016 129.645 77.1016 129.294V121.12C77.1723 119.837 77.732 118.631 78.6656 117.748C79.5992 116.865 80.8358 116.373 82.1213 116.373C83.4067 116.373 84.6433 116.865 85.577 117.748C86.5106 118.631 87.0703 119.837 87.141 121.12V129.629C87.1331 129.971 86.9915 130.296 86.7467 130.535C86.5018 130.774 86.1731 130.908 85.8309 130.908Z" fill="black"/>
<path d="M100.714 130.908C100.365 130.904 100.032 130.762 99.7867 130.515C99.5414 130.267 99.4039 129.932 99.4039 129.583V121.12C99.4039 120.49 99.1535 119.886 98.7078 119.441C98.2621 118.995 97.6576 118.745 97.0273 118.745C96.397 118.745 95.7926 118.995 95.3469 119.441C94.9012 119.886 94.6508 120.49 94.6508 121.12V129.294C94.6508 129.645 94.5111 129.982 94.2626 130.231C94.014 130.479 93.6769 130.619 93.3254 130.619C92.9739 130.619 92.6368 130.479 92.3882 130.231C92.1396 129.982 92 129.645 92 129.294V121.12C92 119.786 92.5305 118.506 93.4747 117.562C94.4189 116.619 95.6996 116.089 97.035 116.089C98.3703 116.089 99.651 116.619 100.595 117.562C101.539 118.506 102.07 119.786 102.07 121.12V129.629C102.058 129.978 101.909 130.307 101.655 130.547C101.401 130.786 101.063 130.916 100.714 130.908Z" fill="black"/>
<path d="M115.385 130.908C115.211 130.908 115.039 130.873 114.878 130.807C114.717 130.74 114.571 130.643 114.448 130.52C114.325 130.397 114.227 130.251 114.16 130.09C114.094 129.93 114.06 129.757 114.06 129.583V121.12C114.06 120.49 113.809 119.886 113.363 119.441C112.918 118.995 112.313 118.745 111.683 118.745C111.053 118.745 110.448 118.995 110.003 119.441C109.557 119.886 109.306 120.49 109.306 121.12V129.294C109.271 129.619 109.118 129.919 108.874 130.138C108.631 130.356 108.316 130.477 107.989 130.477C107.662 130.477 107.346 130.356 107.103 130.138C106.86 129.919 106.706 129.619 106.671 129.294V121.12C106.742 119.837 107.301 118.631 108.235 117.748C109.169 116.865 110.405 116.373 111.691 116.373C112.976 116.373 114.213 116.865 115.146 117.748C116.08 118.631 116.64 119.837 116.71 121.12V129.629C116.699 129.972 116.554 130.298 116.306 130.536C116.059 130.775 115.729 130.908 115.385 130.908Z" fill="black"/>
<path fill-rule="evenodd" clip-rule="evenodd" d="M96.563 27.8761C96.8116 28.1245 97.1487 28.264 97.5002 28.264C97.8517 28.264 98.1888 28.1245 98.4374 27.8761C98.686 27.6277 98.8256 27.2909 98.8256 26.9397V16.4214H107.098V21.3534C107.098 21.5266 107.132 21.6981 107.199 21.8579C107.266 22.0178 107.364 22.1628 107.487 22.2845C107.61 22.4063 107.756 22.5024 107.917 22.5673C108.078 22.6322 108.25 22.6645 108.423 22.6625H120.915C121.089 22.6645 121.261 22.6322 121.421 22.5673C121.582 22.5024 121.728 22.4063 121.852 22.2845C121.975 22.1628 122.073 22.0178 122.14 21.8579C122.206 21.6981 122.241 21.5266 122.241 21.3534V8.85597C122.237 8.50738 122.095 8.17442 121.847 7.92934C121.599 7.68426 121.264 7.54683 120.915 7.54685H116.604V2.61486C116.604 2.44165 116.57 2.27017 116.503 2.11034C116.436 1.95051 116.338 1.80551 116.215 1.68375C116.092 1.56199 115.945 1.46588 115.785 1.40099C115.624 1.3361 115.452 1.30373 115.279 1.30574H97.8464C97.7345 1.27548 97.6182 1.25977 97.5002 1.25977C97.1487 1.25977 96.8116 1.39929 96.563 1.64766C96.3144 1.89602 96.1748 2.23287 96.1748 2.5841V2.6103C96.1748 2.61182 96.1748 2.61334 96.1748 2.61486V15.1123C96.1748 15.1125 96.1748 15.1127 96.1748 15.1129V26.9397C96.1748 27.2909 96.3144 27.6277 96.563 27.8761ZM98.8256 13.7575V3.90874H113.953V8.85597C113.953 9.2072 114.093 9.54405 114.342 9.79241C114.59 10.0408 114.927 10.1803 115.279 10.1803H119.59V20.0291H109.688L109.749 15.0819C109.749 14.7306 109.609 14.3938 109.36 14.1454C109.112 13.897 108.775 13.7575 108.423 13.7575H98.8256Z" fill="black"/>
<path fill-rule="evenodd" clip-rule="evenodd" d="M108.593 38.9199H157.569V38.9351C157.921 38.9351 158.258 38.7956 158.507 38.5472C158.755 38.2989 158.895 37.962 158.895 37.6108C158.895 37.2595 158.755 36.9227 158.507 36.6743C158.258 36.426 157.921 36.2864 157.569 36.2864H106.519L97.5002 24.8546L88.4814 36.2712H36.4408C36.2668 36.2712 36.0944 36.3055 35.9336 36.372C35.7728 36.4386 35.6267 36.5361 35.5036 36.6591C35.3805 36.7821 35.2829 36.9281 35.2163 37.0888C35.1497 37.2494 35.1154 37.4216 35.1154 37.5955C35.1154 37.7695 35.1497 37.9417 35.2163 38.1024C35.2829 38.263 35.3805 38.409 35.5036 38.532C35.6267 38.655 35.7728 38.7525 35.9336 38.8191C36.0944 38.8856 36.2668 38.9199 36.4408 38.9199H86.4214L64.0303 67.2936C63.8503 67.5239 63.7537 67.8083 63.7561 68.1004V70.0036H22.852C22.6671 69.9837 22.48 70.003 22.303 70.0601C22.126 70.1172 21.963 70.2109 21.8246 70.3351C21.6862 70.4593 21.5755 70.6112 21.4997 70.7809C21.4239 70.9507 21.3848 71.1345 21.3848 71.3204C21.3848 71.5062 21.4239 71.69 21.4997 71.8598C21.5755 72.0295 21.6862 72.1815 21.8246 72.3057C21.963 72.4299 22.126 72.5236 22.303 72.5807C22.48 72.6378 22.6671 72.657 22.852 72.6371H63.7561V75.8487H22.3186C21.967 75.8487 21.6299 75.9882 21.3814 76.2365C21.1328 76.4849 20.9932 76.8217 20.9932 77.173C20.9932 77.5242 21.1328 77.8611 21.3814 78.1094C21.6299 78.3578 21.967 78.4973 22.3186 78.4973H63.7561V119.598H33.5158C33.2277 119.668 32.9716 119.833 32.7885 120.066C32.6054 120.3 32.5059 120.588 32.5059 120.884C32.5059 121.18 32.6054 121.468 32.7885 121.701C32.9716 121.935 33.2277 122.1 33.5158 122.17H63.7103V128.259H51.5686C51.5571 128.259 51.5456 128.259 51.5341 128.259H50.2736V129.368C50.2627 129.439 50.2576 129.511 50.2584 129.583V138.077C50.2445 138.206 50.2497 138.336 50.2736 138.463V144.684H64.6461L44.9267 189.468C44.7881 189.791 44.7823 190.156 44.9105 190.483C45.0388 190.811 45.2908 191.075 45.6122 191.218C45.7803 191.292 45.9621 191.328 46.1454 191.325C46.4015 191.325 46.652 191.25 46.8659 191.109C47.0797 190.969 47.2477 190.768 47.3489 190.533L67.504 144.76C67.5148 144.735 67.5248 144.709 67.534 144.684H127.466C127.476 144.709 127.485 144.735 127.496 144.76L147.636 190.518C147.743 190.751 147.914 190.95 148.13 191.09C148.346 191.23 148.597 191.306 148.855 191.309C149.037 191.302 149.217 191.266 149.388 191.203C149.707 191.056 149.955 190.791 150.081 190.464C150.206 190.137 150.198 189.773 150.058 189.452L130.354 144.684H144.727V138.476C144.768 138.347 144.788 138.213 144.788 138.077V129.583C144.789 129.444 144.769 129.305 144.727 129.173V128.32H143.874C143.746 128.279 143.612 128.259 143.478 128.259H131.29V122.231H160.601C160.786 122.251 160.973 122.232 161.15 122.175C161.327 122.118 161.49 122.024 161.628 121.9C161.767 121.775 161.878 121.624 161.953 121.454C162.029 121.284 162.068 121.1 162.068 120.914C162.068 120.729 162.029 120.545 161.953 120.375C161.878 120.205 161.767 120.053 161.628 119.929C161.49 119.805 161.327 119.711 161.15 119.654C160.973 119.597 160.786 119.578 160.601 119.598H131.29V78.4973H172.682C173.033 78.4973 173.37 78.3578 173.619 78.1094C173.868 77.8611 174.007 77.5242 174.007 77.173C174.007 76.8217 173.868 76.4849 173.619 76.2365C173.37 75.9882 173.033 75.8487 172.682 75.8487H131.29V72.6371H172.149C172.334 72.657 172.521 72.6378 172.698 72.5807C172.875 72.5236 173.038 72.4299 173.176 72.3057C173.315 72.1815 173.425 72.0296 173.501 71.8598C173.577 71.69 173.616 71.5063 173.616 71.3204C173.616 71.1345 173.577 70.9507 173.501 70.781C173.425 70.6112 173.315 70.4593 173.176 70.3351C173.038 70.2109 172.875 70.1172 172.698 70.0601C172.521 70.003 172.334 69.9838 172.149 70.0037H131.29V68.1004C131.292 67.8083 131.196 67.5239 131.016 67.2936L108.593 38.9199ZM97.1136 29.6065L97.5002 29.1168L97.9374 29.6706L128.609 68.5571L128.609 119.598V130.984H142.046V142.111H52.9549V130.984H66.3916V129.591L66.3916 129.583V68.5571L97.1136 29.6065ZM93.1818 53.9896C94.4598 54.8433 95.9626 55.299 97.4999 55.299C99.5578 55.299 101.532 54.4832 102.988 53.0306C104.445 51.578 105.265 49.6072 105.269 47.5509C105.272 46.0148 104.819 44.5124 103.967 43.2337C103.116 41.955 101.903 40.9576 100.484 40.3677C99.0643 39.7777 97.5016 39.6218 95.9935 39.9197C94.4853 40.2175 93.0995 40.9557 92.0114 42.0408C90.9233 43.1259 90.1818 44.5092 89.8808 46.0155C89.5797 47.5219 89.7327 49.0836 90.3203 50.503C90.9079 51.9225 91.9038 53.1359 93.1818 53.9896ZM94.6434 43.2782C95.4897 42.7163 96.4838 42.418 97.4999 42.421C98.8589 42.425 100.161 42.9673 101.12 43.9289C102.08 44.8905 102.619 46.193 102.619 47.5509C102.619 48.5661 102.317 49.5586 101.752 50.4025C101.188 51.2464 100.385 51.9039 99.4458 52.2917C98.5068 52.6796 97.4737 52.7803 96.4774 52.5811C95.4811 52.3819 94.5664 51.8918 93.849 51.1729C93.1316 50.4539 92.6438 49.5384 92.4475 48.5423C92.2511 47.5462 92.3549 46.5143 92.7458 45.5772C93.1368 44.6401 93.7972 43.84 94.6434 43.2782ZM118.127 69.3647H76.8726C76.6876 69.3846 76.5005 69.3654 76.3235 69.3083C76.1465 69.2512 75.9835 69.1575 75.8451 69.0333C75.7067 68.9091 75.596 68.7572 75.5202 68.5874C75.4444 68.4177 75.4053 68.2339 75.4053 68.048C75.4053 67.8621 75.4444 67.6783 75.5202 67.5086C75.596 67.3388 75.7067 67.1869 75.8451 67.0627C75.9835 66.9385 76.1465 66.8448 76.3235 66.7877C76.5005 66.7306 76.6876 66.7114 76.8726 66.7313H118.127C118.312 66.7114 118.499 66.7306 118.676 66.7877C118.853 66.8448 119.016 66.9385 119.155 67.0627C119.293 67.1869 119.404 67.3388 119.48 67.5086C119.555 67.6783 119.595 67.8621 119.595 68.048C119.595 68.2339 119.555 68.4177 119.48 68.5874C119.404 68.7572 119.293 68.9091 119.155 69.0333C119.016 69.1575 118.853 69.2512 118.676 69.3083C118.499 69.3654 118.312 69.3846 118.127 69.3647ZM76.8726 75.0884H118.127C118.312 75.1083 118.499 75.089 118.676 75.0319C118.853 74.9748 119.016 74.8811 119.155 74.7569C119.293 74.6327 119.404 74.4808 119.48 74.3111C119.555 74.1413 119.595 73.9575 119.595 73.7716C119.595 73.5858 119.555 73.402 119.48 73.2322C119.404 73.0625 119.293 72.9105 119.155 72.7863C119.016 72.6621 118.853 72.5684 118.676 72.5113C118.499 72.4542 118.312 72.435 118.127 72.4549H76.8726C76.6876 72.435 76.5005 72.4542 76.3235 72.5113C76.1465 72.5684 75.9835 72.6621 75.8451 72.7863C75.7067 72.9105 75.596 73.0625 75.5202 73.2322C75.4444 73.402 75.4053 73.5858 75.4053 73.7716C75.4053 73.9575 75.4444 74.1413 75.5202 74.3111C75.596 74.4808 75.7067 74.6327 75.8451 74.7569C75.9835 74.8811 76.1465 74.9748 76.3235 75.0319C76.5005 75.089 76.6876 75.1083 76.8726 75.0884ZM79.4779 113.417C79.1291 113.413 78.7958 113.272 78.5506 113.024C78.3053 112.776 78.1678 112.442 78.1678 112.093V81.4203C78.1479 81.2355 78.1671 81.0486 78.2242 80.8717C78.2814 80.6948 78.3752 80.5319 78.4995 80.3937C78.6238 80.2554 78.7758 80.1448 78.9457 80.0691C79.1156 79.9934 79.2995 79.9542 79.4855 79.9542C79.6716 79.9542 79.8555 79.9934 80.0254 80.0691C80.1953 80.1448 80.3473 80.2554 80.4716 80.3937C80.5959 80.5319 80.6897 80.6948 80.7468 80.8717C80.804 81.0486 80.8232 81.2355 80.8033 81.4203V112.093C80.8033 112.444 80.6637 112.781 80.4151 113.03C80.1666 113.278 79.8294 113.417 79.4779 113.417ZM93.8889 113.417H86.6982C86.3467 113.417 86.0096 113.278 85.761 113.03C85.5125 112.781 85.3728 112.444 85.3728 112.093V81.4203C85.3529 81.2355 85.3722 81.0486 85.4293 80.8717C85.4865 80.6948 85.5802 80.5319 85.7045 80.3937C85.8288 80.2554 85.9809 80.1448 86.1508 80.0691C86.3207 79.9934 86.5046 79.9542 86.6906 79.9542C86.8766 79.9542 87.0606 79.9934 87.2305 80.0691C87.4004 80.1448 87.5524 80.2554 87.6767 80.3937C87.801 80.5319 87.8948 80.6948 87.9519 80.8717C88.0091 81.0486 88.0283 81.2355 88.0084 81.4203V110.784H92.5787V81.4203C92.5588 81.2355 92.578 81.0486 92.6352 80.8717C92.6923 80.6948 92.7861 80.5319 92.9104 80.3937C93.0347 80.2554 93.1867 80.1448 93.3566 80.0691C93.5265 79.9934 93.7105 79.9542 93.8965 79.9542C94.0825 79.9542 94.2664 79.9934 94.4363 80.0691C94.6062 80.1448 94.7583 80.2554 94.8826 80.3937C95.0069 80.5319 95.1006 80.6948 95.1578 80.8717C95.2149 81.0486 95.2342 81.2355 95.2143 81.4203V112.093C95.2143 112.444 95.0746 112.781 94.8261 113.03C94.5775 113.278 94.2404 113.417 93.8889 113.417ZM101.11 113.417H108.316C108.49 113.417 108.661 113.383 108.821 113.316C108.981 113.25 109.126 113.152 109.248 113.029C109.37 112.905 109.466 112.759 109.531 112.599C109.596 112.438 109.628 112.266 109.626 112.093V81.4203C109.646 81.2355 109.627 81.0486 109.57 80.8717C109.513 80.6948 109.419 80.5319 109.295 80.3937C109.17 80.2554 109.018 80.1448 108.849 80.0691C108.679 79.9934 108.495 79.9542 108.309 79.9542C108.123 79.9542 107.939 79.9934 107.769 80.0691C107.599 80.1448 107.447 80.2554 107.323 80.3937C107.198 80.5319 107.105 80.6948 107.047 80.8717C106.99 81.0486 106.971 81.2355 106.991 81.4203V110.784H102.421V81.4203C102.441 81.2355 102.421 81.0486 102.364 80.8717C102.307 80.6948 102.213 80.5319 102.089 80.3937C101.965 80.2554 101.813 80.1448 101.643 80.0691C101.473 79.9934 101.289 79.9542 101.103 79.9542C100.917 79.9542 100.733 79.9934 100.563 80.0691C100.393 80.1448 100.241 80.2554 100.117 80.3937C99.9924 80.5319 99.8987 80.6948 99.8415 80.8717C99.7844 81.0486 99.7651 81.2355 99.785 81.4203V112.093C99.785 112.267 99.8193 112.439 99.8859 112.6C99.9525 112.761 100.05 112.907 100.173 113.03C100.296 113.153 100.442 113.25 100.603 113.317C100.764 113.383 100.936 113.417 101.11 113.417ZM115.522 113.417C115.171 113.417 114.834 113.278 114.585 113.03C114.337 112.781 114.197 112.444 114.197 112.093V81.4203C114.177 81.2355 114.196 81.0486 114.254 80.8717C114.311 80.6948 114.404 80.5319 114.529 80.3937C114.653 80.2554 114.805 80.1448 114.975 80.0691C115.145 79.9934 115.329 79.9542 115.515 79.9542C115.701 79.9542 115.885 79.9934 116.055 80.0691C116.225 80.1448 116.377 80.2554 116.501 80.3937C116.625 80.5319 116.719 80.6948 116.776 80.8717C116.833 81.0486 116.853 81.2355 116.833 81.4203V112.093C116.833 112.442 116.695 112.776 116.45 113.024C116.205 113.272 115.871 113.413 115.522 113.417ZM85.8299 130.908C85.6558 130.908 85.4835 130.874 85.3227 130.807C85.1619 130.74 85.0158 130.643 84.8927 130.52C84.7696 130.397 84.672 130.251 84.6054 130.09C84.5388 129.93 84.5045 129.757 84.5045 129.583V121.12C84.5045 120.49 84.2541 119.886 83.8084 119.441C83.3627 118.995 82.7582 118.745 82.1279 118.745C81.4976 118.745 80.8931 118.995 80.4474 119.441C80.0018 119.886 79.7514 120.49 79.7514 121.12V129.294C79.7514 129.645 79.6117 129.982 79.3632 130.231C79.1146 130.479 78.7775 130.619 78.426 130.619C78.0745 130.619 77.7373 130.479 77.4888 130.231C77.2402 129.982 77.1006 129.645 77.1006 129.294V121.12C77.1713 119.837 77.731 118.631 78.6646 117.748C79.5983 116.865 80.8349 116.373 82.1203 116.373C83.4058 116.373 84.6424 116.865 85.576 117.748C86.5096 118.631 87.0693 119.837 87.14 121.12V129.629C87.1321 129.971 86.9905 130.296 86.7457 130.535C86.5008 130.774 86.1721 130.908 85.8299 130.908ZM99.7867 130.515C100.032 130.763 100.365 130.904 100.714 130.908C101.063 130.916 101.401 130.786 101.655 130.547C101.909 130.308 102.058 129.978 102.07 129.629V121.12C102.07 119.786 101.539 118.506 100.595 117.562C99.651 116.619 98.3703 116.089 97.035 116.089C95.6996 116.089 94.4189 116.619 93.4747 117.562C92.5305 118.506 92 119.786 92 121.12V129.294C92 129.645 92.1396 129.982 92.3882 130.231C92.6368 130.479 92.9739 130.619 93.3254 130.619C93.6769 130.619 94.014 130.479 94.2626 130.231C94.5111 129.982 94.6508 129.645 94.6508 129.294V121.12C94.6508 120.49 94.9012 119.886 95.3469 119.441C95.7926 118.995 96.397 118.745 97.0273 118.745C97.6576 118.745 98.2621 118.995 98.7078 119.441C99.1535 119.886 99.4039 120.49 99.4039 121.12V129.583C99.4039 129.932 99.5414 130.267 99.7867 130.515ZM115.385 130.908C115.211 130.908 115.039 130.874 114.878 130.807C114.717 130.74 114.571 130.643 114.448 130.52C114.325 130.397 114.227 130.251 114.161 130.09C114.094 129.93 114.06 129.757 114.06 129.583V121.12C114.06 120.49 113.809 119.886 113.364 119.441C112.918 118.995 112.313 118.745 111.683 118.745C111.053 118.745 110.448 118.995 110.003 119.441C109.557 119.886 109.307 120.49 109.307 121.12V129.294C109.272 129.619 109.118 129.919 108.874 130.138C108.631 130.356 108.316 130.477 107.989 130.477C107.662 130.477 107.346 130.356 107.103 130.138C106.86 129.919 106.706 129.619 106.671 129.294V121.12C106.742 119.837 107.301 118.631 108.235 117.748C109.169 116.865 110.405 116.373 111.691 116.373C112.976 116.373 114.213 116.865 115.146 117.748C116.08 118.631 116.64 119.837 116.71 121.12V129.629C116.699 129.972 116.554 130.298 116.306 130.536C116.059 130.775 115.729 130.908 115.385 130.908ZM171.478 95.5165H166.466C166.117 95.5166 165.782 95.3791 165.534 95.1341C165.286 94.889 165.145 94.556 165.141 94.2074V85.9874C165.141 85.6362 165.28 85.2994 165.529 85.051C165.778 84.8026 166.115 84.6631 166.466 84.6631C166.818 84.6631 167.155 84.8026 167.403 85.051C167.652 85.2994 167.792 85.6362 167.792 85.9874V92.8831H171.478C171.663 92.8632 171.85 92.8824 172.027 92.9395C172.204 92.9966 172.367 93.0903 172.506 93.2145C172.644 93.3387 172.755 93.4906 172.831 93.6604C172.906 93.8302 172.946 94.014 172.946 94.1998C172.946 94.3857 172.906 94.5695 172.831 94.7393C172.755 94.909 172.644 95.0609 172.506 95.1851C172.367 95.3093 172.204 95.403 172.027 95.4601C171.85 95.5172 171.663 95.5364 171.478 95.5165ZM97.5002 178.842C88.9674 178.848 80.4706 177.737 72.2263 175.539C71.2985 175.197 70.5323 174.52 70.0784 173.642C69.6245 172.764 69.5158 171.748 69.7736 170.794C70.0314 169.84 70.6371 169.017 71.4715 168.487C72.306 167.956 73.3089 167.757 74.283 167.928C89.5506 171.992 105.617 171.992 120.885 167.928C121.846 167.788 122.825 168.005 123.637 168.537C124.449 169.07 125.039 169.88 125.293 170.817C125.548 171.753 125.451 172.751 125.021 173.621C124.591 174.49 123.856 175.173 122.957 175.539C114.653 177.751 106.094 178.862 97.5002 178.842ZM23.4459 95.5157H28.4427C28.7916 95.5158 29.1265 95.3783 29.3746 95.1333C29.6227 94.8882 29.7641 94.5552 29.7681 94.2066V85.9866C29.788 85.8018 29.7688 85.6149 29.7117 85.438C29.6545 85.2611 29.5607 85.0982 29.4364 84.96C29.3121 84.8217 29.1601 84.7111 28.9902 84.6354C28.8203 84.5597 28.6364 84.5205 28.4504 84.5205C28.2643 84.5205 28.0804 84.5597 27.9105 84.6354C27.7406 84.7111 27.5886 84.8217 27.4643 84.96C27.34 85.0982 27.2462 85.2611 27.1891 85.438C27.1319 85.6149 27.1127 85.8018 27.1326 85.9866V92.8823H23.4459C23.2609 92.8624 23.0738 92.8816 22.8968 92.9387C22.7198 92.9958 22.5568 93.0895 22.4184 93.2137C22.28 93.3379 22.1693 93.4898 22.0935 93.6596C22.0177 93.8294 21.9786 94.0132 21.9786 94.199C21.9786 94.3849 22.0177 94.5687 22.0935 94.7384C22.1693 94.9082 22.28 95.0601 22.4184 95.1843C22.5568 95.3085 22.7198 95.4022 22.8968 95.4593C23.0738 95.5164 23.2609 95.5357 23.4459 95.5157ZM43.2054 95.5165H38.1933C37.8682 95.4816 37.5675 95.3278 37.3491 95.0847C37.1306 94.8417 37.0098 94.5265 37.0098 94.1998C37.0098 93.8731 37.1306 93.558 37.3491 93.3149C37.5675 93.0719 37.8682 92.9181 38.1933 92.8831H41.88V85.9874C41.88 85.6362 42.0196 85.2993 42.2682 85.051C42.5167 84.8026 42.8539 84.6631 43.2054 84.6631C43.5569 84.6631 43.894 84.8026 44.1426 85.051C44.3911 85.2993 44.5308 85.6362 44.5308 85.9874V94.2074C44.5268 94.556 44.3853 94.889 44.1372 95.134C43.8891 95.3791 43.5543 95.5165 43.2054 95.5165ZM52.9546 95.5157H57.8905C58.0684 95.5239 58.246 95.4962 58.4129 95.4343C58.5798 95.3724 58.7325 95.2775 58.8619 95.1553C58.9913 95.0331 59.0947 94.8862 59.166 94.7232C59.2373 94.5602 59.275 94.3845 59.2769 94.2066V85.9866C59.2968 85.8018 59.2775 85.6149 59.2204 85.438C59.1632 85.2611 59.0695 85.0982 58.9452 84.9599C58.8209 84.8216 58.6688 84.7111 58.4989 84.6353C58.329 84.5596 58.1451 84.5205 57.9591 84.5205C57.7731 84.5205 57.5891 84.5596 57.4192 84.6353C57.2493 84.7111 57.0973 84.8216 56.973 84.9599C56.8487 85.0982 56.7549 85.2611 56.6978 85.438C56.6406 85.6149 56.6214 85.8018 56.6413 85.9866V92.8823H52.9546C52.7696 92.8624 52.5826 92.8816 52.4055 92.9387C52.2285 92.9958 52.0655 93.0895 51.9271 93.2137C51.7887 93.3379 51.678 93.4898 51.6022 93.6596C51.5265 93.8293 51.4873 94.0131 51.4873 94.199C51.4873 94.3849 51.5265 94.5687 51.6022 94.7384C51.678 94.9082 51.7887 95.0601 51.9271 95.1843C52.0655 95.3085 52.2285 95.4022 52.4055 95.4593C52.5826 95.5164 52.7696 95.5356 52.9546 95.5157ZM43.2049 114.3H38.1928C37.8412 114.3 37.5041 114.161 37.2556 113.912C37.007 113.664 36.8674 113.327 36.8674 112.976C36.8674 112.625 37.007 112.288 37.2556 112.04C37.5041 111.791 37.8412 111.652 38.1928 111.652H41.8795V104.756C41.8795 104.405 42.0191 104.068 42.2677 103.82C42.5162 103.571 42.8534 103.432 43.2049 103.432C43.5564 103.432 43.8935 103.571 44.1421 103.82C44.3906 104.068 44.5303 104.405 44.5303 104.756V112.976C44.5303 113.327 44.3906 113.664 44.1421 113.912C43.8935 114.161 43.5564 114.3 43.2049 114.3ZM52.9553 114.3H57.8912C58.0703 114.309 58.2492 114.28 58.4171 114.218C58.5851 114.155 58.7385 114.058 58.8681 113.935C58.9977 113.811 59.1008 113.662 59.1712 113.497C59.2415 113.332 59.2777 113.155 59.2775 112.976V104.756C59.2425 104.431 59.0886 104.131 58.8454 103.912C58.6021 103.694 58.2867 103.573 57.9598 103.573C57.6328 103.573 57.3174 103.694 57.0742 103.912C56.8309 104.131 56.677 104.431 56.642 104.756V111.652H52.9553C52.6038 111.652 52.2666 111.791 52.0181 112.04C51.7695 112.288 51.6299 112.625 51.6299 112.976C51.6299 113.327 51.7695 113.664 52.0181 113.912C52.2666 114.161 52.6038 114.3 52.9553 114.3ZM141.679 95.5157H136.606C136.258 95.5157 135.923 95.3783 135.675 95.1332C135.426 94.8882 135.285 94.5552 135.281 94.2066V85.9866C135.261 85.8018 135.28 85.6149 135.338 85.438C135.395 85.2611 135.488 85.0982 135.613 84.9599C135.737 84.8216 135.889 84.7111 136.059 84.6353C136.229 84.5596 136.413 84.5205 136.599 84.5205C136.785 84.5205 136.969 84.5596 137.139 84.6353C137.309 84.7111 137.461 84.8216 137.585 84.9599C137.709 85.0982 137.803 85.2611 137.86 85.438C137.917 85.6149 137.937 85.8018 137.917 85.9866V92.8823H141.679C141.864 92.8624 142.052 92.8816 142.229 92.9387C142.406 92.9958 142.569 93.0895 142.707 93.2137C142.845 93.3379 142.956 93.4898 143.032 93.6596C143.108 93.8293 143.147 94.0131 143.147 94.199C143.147 94.3849 143.108 94.5687 143.032 94.7384C142.956 94.9082 142.845 95.0601 142.707 95.1843C142.569 95.3085 142.406 95.4022 142.229 95.4593C142.052 95.5164 141.864 95.5356 141.679 95.5157ZM151.354 95.5165H156.366C156.551 95.5364 156.738 95.5172 156.915 95.4601C157.092 95.403 157.255 95.3093 157.393 95.1851C157.532 95.0609 157.642 94.909 157.718 94.7393C157.794 94.5695 157.833 94.3857 157.833 94.1998C157.833 94.014 157.794 93.8302 157.718 93.6604C157.642 93.4906 157.532 93.3387 157.393 93.2145C157.255 93.0903 157.092 92.9966 156.915 92.9395C156.738 92.8824 156.551 92.8632 156.366 92.8831H152.679V85.9874C152.679 85.6362 152.539 85.2994 152.291 85.051C152.042 84.8026 151.705 84.6631 151.354 84.6631C151.002 84.6631 150.665 84.8026 150.417 85.051C150.168 85.2994 150.028 85.6362 150.028 85.9874V94.2074C150.032 94.556 150.174 94.889 150.422 95.1341C150.67 95.3791 151.005 95.5166 151.354 95.5165ZM141.68 114.3H136.607C136.433 114.3 136.26 114.266 136.1 114.2C135.939 114.133 135.793 114.035 135.67 113.912C135.547 113.789 135.449 113.643 135.382 113.483C135.316 113.322 135.281 113.15 135.281 112.976V104.756C135.316 104.431 135.47 104.131 135.714 103.912C135.957 103.694 136.272 103.573 136.599 103.573C136.926 103.573 137.242 103.694 137.485 103.912C137.728 104.131 137.882 104.431 137.917 104.756V111.652H141.68C142.031 111.652 142.368 111.791 142.617 112.04C142.866 112.288 143.005 112.625 143.005 112.976C143.005 113.327 142.866 113.664 142.617 113.912C142.368 114.161 142.031 114.3 141.68 114.3ZM151.354 114.3H156.366C156.717 114.3 157.054 114.161 157.303 113.912C157.552 113.664 157.691 113.327 157.691 112.976C157.691 112.625 157.552 112.288 157.303 112.04C157.054 111.791 156.717 111.652 156.366 111.652H152.679V104.756C152.679 104.405 152.539 104.068 152.291 103.82C152.042 103.571 151.705 103.432 151.354 103.432C151.002 103.432 150.665 103.571 150.417 103.82C150.168 104.068 150.028 104.405 150.028 104.756V112.976C150.028 113.15 150.063 113.322 150.129 113.483C150.196 113.643 150.293 113.789 150.417 113.912C150.54 114.035 150.686 114.133 150.846 114.2C151.007 114.266 151.18 114.3 151.354 114.3Z" fill="black"/>
</svg>
