<svg width="195" height="208" viewBox="0 0 195 208" fill="none" xmlns="http://www.w3.org/2000/svg">
<path d="M41.8489 176.515C40.9963 176.516 40.1669 176.238 39.4875 175.723C26.1094 165.827 15.4895 152.674 8.63934 137.515C1.78919 122.357 -1.06313 105.699 0.354059 89.1276C1.77124 72.5561 7.41073 56.6231 16.7354 42.846C26.0601 29.0689 38.7595 17.9065 53.624 10.4219C68.4885 2.93741 85.0232 -0.620028 101.653 0.0884401C118.283 0.796909 134.455 5.74769 148.628 14.4693C162.801 23.1909 174.503 35.3928 182.621 49.9129C190.738 64.4331 195 80.788 195 97.4199C194.962 112.608 191.389 127.578 184.565 141.15C177.741 154.721 167.852 166.52 155.68 175.616C154.832 176.169 153.806 176.377 152.809 176.2C151.813 176.022 150.922 175.471 150.318 174.66C149.714 173.849 149.442 172.838 149.558 171.833C149.674 170.829 150.169 169.906 150.942 169.254C163.209 160.142 172.939 148.045 179.205 134.114C185.471 120.184 188.066 104.882 186.741 89.6668C185.417 74.4511 180.218 59.8272 171.64 47.1864C163.061 34.5456 151.388 24.3084 137.731 17.449C124.074 10.5897 108.888 7.33626 93.6167 7.99836C78.3459 8.66046 63.4986 13.216 50.4876 21.2317C37.4766 29.2473 26.7347 40.4563 19.2841 53.7921C11.8335 67.1278 7.92208 82.1468 7.9219 97.4199C7.95261 111.402 11.2457 125.185 17.5397 137.673C23.8337 150.161 32.9552 161.011 44.1797 169.36C44.847 169.859 45.3406 170.554 45.5908 171.348C45.841 172.143 45.8352 172.995 45.5743 173.786C45.3133 174.577 44.8103 175.265 44.1364 175.755C43.4625 176.245 42.6516 176.51 41.8184 176.515H41.8489Z" fill="white"/>
<path d="M97.5 71.299C95.9627 71.299 94.4599 70.8432 93.1819 69.9895C91.9039 69.1358 90.908 67.9224 90.3204 66.503C89.7328 65.0835 89.5799 63.5218 89.8809 62.0155C90.1819 60.5091 90.9234 59.1258 92.0115 58.0407C93.0996 56.9556 94.4854 56.2174 95.9936 55.9196C97.5017 55.6218 99.0644 55.7777 100.484 56.3676C101.903 56.9575 103.116 57.9549 103.968 59.2336C104.819 60.5123 105.273 62.0148 105.27 63.5508C105.265 65.6072 104.445 67.5779 102.989 69.0305C101.532 70.4831 99.558 71.299 97.5 71.299ZM97.5 58.421C96.4839 58.4179 95.4898 58.7162 94.6436 59.2781C93.7973 59.8399 93.1369 60.6401 92.746 61.5771C92.355 62.5142 92.2512 63.5462 92.4476 64.5423C92.6439 65.5384 93.1317 66.4539 93.8491 67.1728C94.5665 67.8918 95.4812 68.3818 96.4775 68.581C97.4739 68.7802 98.5069 68.6795 99.4459 68.2917C100.385 67.9039 101.188 67.2464 101.752 66.4024C102.317 65.5585 102.619 64.5661 102.619 63.5508C102.619 62.1929 102.08 60.8904 101.12 59.9288C100.161 58.9672 98.859 58.425 97.5 58.421Z" fill="white"/>
<path d="M85.8309 146.908C85.6568 146.908 85.4845 146.873 85.3237 146.807C85.1628 146.74 85.0167 146.643 84.8937 146.52C84.7706 146.397 84.673 146.251 84.6064 146.09C84.5397 145.93 84.5055 145.757 84.5055 145.583V137.12C84.5055 136.49 84.2551 135.886 83.8094 135.441C83.3637 134.995 82.7592 134.745 82.1289 134.745C81.4986 134.745 80.8941 134.995 80.4484 135.441C80.0027 135.886 79.7523 136.49 79.7523 137.12V145.294C79.7523 145.645 79.6127 145.982 79.3641 146.231C79.1156 146.479 78.7785 146.619 78.427 146.619C78.0754 146.619 77.7383 146.479 77.4898 146.231C77.2412 145.982 77.1016 145.645 77.1016 145.294V137.12C77.1723 135.837 77.732 134.631 78.6656 133.748C79.5992 132.865 80.8358 132.373 82.1213 132.373C83.4067 132.373 84.6433 132.865 85.577 133.748C86.5106 134.631 87.0703 135.837 87.141 137.12V145.629C87.1331 145.971 86.9915 146.296 86.7467 146.535C86.5018 146.774 86.1731 146.908 85.8309 146.908Z" fill="white"/>
<path d="M100.714 146.908C100.365 146.904 100.032 146.762 99.7867 146.515C99.5414 146.267 99.4039 145.932 99.4039 145.583V137.12C99.4039 136.49 99.1535 135.886 98.7078 135.441C98.2621 134.995 97.6576 134.745 97.0273 134.745C96.397 134.745 95.7926 134.995 95.3469 135.441C94.9012 135.886 94.6508 136.49 94.6508 137.12V145.294C94.6508 145.645 94.5111 145.982 94.2626 146.231C94.014 146.479 93.6769 146.619 93.3254 146.619C92.9739 146.619 92.6368 146.479 92.3882 146.231C92.1396 145.982 92 145.645 92 145.294V137.12C92 135.786 92.5305 134.506 93.4747 133.562C94.4189 132.619 95.6996 132.089 97.035 132.089C98.3703 132.089 99.651 132.619 100.595 133.562C101.539 134.506 102.07 135.786 102.07 137.12V145.629C102.058 145.978 101.909 146.307 101.655 146.547C101.401 146.786 101.063 146.916 100.714 146.908Z" fill="white"/>
<path d="M115.385 146.908C115.211 146.908 115.039 146.873 114.878 146.807C114.717 146.74 114.571 146.643 114.448 146.52C114.325 146.397 114.227 146.251 114.16 146.09C114.094 145.93 114.06 145.757 114.06 145.583V137.12C114.06 136.49 113.809 135.886 113.363 135.441C112.918 134.995 112.313 134.745 111.683 134.745C111.053 134.745 110.448 134.995 110.003 135.441C109.557 135.886 109.306 136.49 109.306 137.12V145.294C109.271 145.619 109.118 145.919 108.874 146.138C108.631 146.356 108.316 146.477 107.989 146.477C107.662 146.477 107.346 146.356 107.103 146.138C106.86 145.919 106.706 145.619 106.671 145.294V137.12C106.742 135.837 107.301 134.631 108.235 133.748C109.169 132.865 110.405 132.373 111.691 132.373C112.976 132.373 114.213 132.865 115.146 133.748C116.08 134.631 116.64 135.837 116.71 137.12V145.629C116.699 145.972 116.554 146.298 116.306 146.536C116.059 146.775 115.729 146.908 115.385 146.908Z" fill="white"/>
<path fill-rule="evenodd" clip-rule="evenodd" d="M96.563 43.8761C96.8116 44.1245 97.1487 44.264 97.5002 44.264C97.8517 44.264 98.1888 44.1245 98.4374 43.8761C98.686 43.6277 98.8256 43.2909 98.8256 42.9397V32.4214H107.098V37.3534C107.098 37.5266 107.132 37.6981 107.199 37.8579C107.266 38.0178 107.364 38.1628 107.487 38.2845C107.61 38.4063 107.756 38.5024 107.917 38.5673C108.078 38.6322 108.25 38.6645 108.423 38.6625H120.915C121.089 38.6645 121.261 38.6322 121.421 38.5673C121.582 38.5024 121.728 38.4063 121.852 38.2845C121.975 38.1628 122.073 38.0178 122.14 37.8579C122.206 37.6981 122.241 37.5266 122.241 37.3534V24.856C122.237 24.5074 122.095 24.1744 121.847 23.9293C121.599 23.6843 121.264 23.5468 120.915 23.5469H116.604V18.6149C116.604 18.4417 116.57 18.2702 116.503 18.1103C116.436 17.9505 116.338 17.8055 116.215 17.6838C116.092 17.562 115.945 17.4659 115.785 17.401C115.624 17.3361 115.452 17.3037 115.279 17.3057H97.8464C97.7345 17.2755 97.6182 17.2598 97.5002 17.2598C97.1487 17.2598 96.8116 17.3993 96.563 17.6477C96.3144 17.896 96.1748 18.2329 96.1748 18.5841V18.6103C96.1748 18.6118 96.1748 18.6133 96.1748 18.6149V31.1123C96.1748 31.1125 96.1748 31.1127 96.1748 31.1129V42.9397C96.1748 43.2909 96.3144 43.6277 96.563 43.8761ZM98.8256 29.7575V19.9087H113.953V24.856C113.953 25.2072 114.093 25.5441 114.342 25.7924C114.59 26.0408 114.927 26.1803 115.279 26.1803H119.59V36.0291H109.688L109.749 31.0819C109.749 30.7306 109.609 30.3938 109.36 30.1454C109.112 29.897 108.775 29.7575 108.423 29.7575H98.8256Z" fill="white"/>
<path fill-rule="evenodd" clip-rule="evenodd" d="M108.593 54.9199H157.569V54.9351C157.921 54.9351 158.258 54.7956 158.507 54.5472C158.755 54.2989 158.895 53.962 158.895 53.6108C158.895 53.2595 158.755 52.9227 158.507 52.6743C158.258 52.426 157.921 52.2864 157.569 52.2864H106.519L97.5002 40.8546L88.4814 52.2712H36.4408C36.2668 52.2712 36.0944 52.3055 35.9336 52.372C35.7728 52.4386 35.6267 52.5361 35.5036 52.6591C35.3805 52.7821 35.2829 52.9281 35.2163 53.0888C35.1497 53.2494 35.1154 53.4216 35.1154 53.5955C35.1154 53.7695 35.1497 53.9417 35.2163 54.1024C35.2829 54.263 35.3805 54.409 35.5036 54.532C35.6267 54.655 35.7728 54.7525 35.9336 54.8191C36.0944 54.8856 36.2668 54.9199 36.4408 54.9199H86.4214L64.0303 83.2936C63.8503 83.5239 63.7537 83.8083 63.7561 84.1004V86.0036H22.852C22.6671 85.9837 22.48 86.003 22.303 86.0601C22.126 86.1172 21.963 86.2109 21.8246 86.3351C21.6862 86.4593 21.5755 86.6112 21.4997 86.7809C21.4239 86.9507 21.3848 87.1345 21.3848 87.3204C21.3848 87.5062 21.4239 87.69 21.4997 87.8598C21.5755 88.0295 21.6862 88.1815 21.8246 88.3057C21.963 88.4299 22.126 88.5236 22.303 88.5807C22.48 88.6378 22.6671 88.657 22.852 88.6371H63.7561V91.8487H22.3186C21.967 91.8487 21.6299 91.9882 21.3814 92.2365C21.1328 92.4849 20.9932 92.8217 20.9932 93.173C20.9932 93.5242 21.1328 93.8611 21.3814 94.1094C21.6299 94.3578 21.967 94.4973 22.3186 94.4973H63.7561V135.598H33.5158C33.2277 135.668 32.9716 135.833 32.7885 136.066C32.6054 136.3 32.5059 136.588 32.5059 136.884C32.5059 137.18 32.6054 137.468 32.7885 137.701C32.9716 137.935 33.2277 138.1 33.5158 138.17H63.7103V144.259H51.5686C51.5571 144.259 51.5456 144.259 51.5341 144.259H50.2736V145.368C50.2627 145.439 50.2576 145.511 50.2584 145.583V154.077C50.2445 154.206 50.2497 154.336 50.2736 154.463V160.684H64.6461L44.9267 205.468C44.7881 205.791 44.7823 206.156 44.9105 206.483C45.0388 206.811 45.2908 207.075 45.6122 207.218C45.7803 207.292 45.9621 207.328 46.1454 207.325C46.4015 207.325 46.652 207.25 46.8659 207.109C47.0797 206.969 47.2477 206.768 47.3489 206.533L67.504 160.76C67.5148 160.735 67.5248 160.709 67.534 160.684H127.466C127.476 160.709 127.485 160.735 127.496 160.76L147.636 206.518C147.743 206.751 147.914 206.95 148.13 207.09C148.346 207.23 148.597 207.306 148.855 207.309C149.037 207.302 149.217 207.266 149.388 207.203C149.707 207.056 149.955 206.791 150.081 206.464C150.206 206.137 150.198 205.773 150.058 205.452L130.354 160.684H144.727V154.476C144.768 154.347 144.788 154.213 144.788 154.077V145.583C144.789 145.444 144.769 145.305 144.727 145.173V144.32H143.874C143.746 144.279 143.612 144.259 143.478 144.259H131.29V138.231H160.601C160.786 138.251 160.973 138.232 161.15 138.175C161.327 138.118 161.49 138.024 161.628 137.9C161.767 137.775 161.878 137.624 161.953 137.454C162.029 137.284 162.068 137.1 162.068 136.914C162.068 136.729 162.029 136.545 161.953 136.375C161.878 136.205 161.767 136.053 161.628 135.929C161.49 135.805 161.327 135.711 161.15 135.654C160.973 135.597 160.786 135.578 160.601 135.598H131.29V94.4973H172.682C173.033 94.4973 173.37 94.3578 173.619 94.1094C173.868 93.8611 174.007 93.5242 174.007 93.173C174.007 92.8217 173.868 92.4849 173.619 92.2365C173.37 91.9882 173.033 91.8487 172.682 91.8487H131.29V88.6371H172.149C172.334 88.657 172.521 88.6378 172.698 88.5807C172.875 88.5236 173.038 88.4299 173.176 88.3057C173.315 88.1815 173.425 88.0296 173.501 87.8598C173.577 87.69 173.616 87.5063 173.616 87.3204C173.616 87.1345 173.577 86.9507 173.501 86.781C173.425 86.6112 173.315 86.4593 173.176 86.3351C173.038 86.2109 172.875 86.1172 172.698 86.0601C172.521 86.003 172.334 85.9838 172.149 86.0037H131.29V84.1004C131.292 83.8083 131.196 83.5239 131.016 83.2936L108.593 54.9199ZM97.1136 45.6065L97.5002 45.1168L97.9374 45.6706L128.609 84.5571L128.609 135.598V146.984H142.046V158.111H52.9549V146.984H66.3916V145.591L66.3916 145.583V84.5571L97.1136 45.6065ZM93.1818 69.9896C94.4598 70.8433 95.9626 71.299 97.4999 71.299C99.5578 71.299 101.532 70.4832 102.988 69.0306C104.445 67.578 105.265 65.6072 105.269 63.5509C105.272 62.0148 104.819 60.5124 103.967 59.2337C103.116 57.955 101.903 56.9576 100.484 56.3677C99.0643 55.7777 97.5016 55.6218 95.9935 55.9197C94.4853 56.2175 93.0995 56.9557 92.0114 58.0408C90.9233 59.1259 90.1818 60.5092 89.8808 62.0155C89.5797 63.5219 89.7327 65.0836 90.3203 66.503C90.9079 67.9225 91.9038 69.1359 93.1818 69.9896ZM94.6434 59.2782C95.4897 58.7163 96.4838 58.418 97.4999 58.421C98.8589 58.425 100.161 58.9673 101.12 59.9289C102.08 60.8905 102.619 62.193 102.619 63.5509C102.619 64.5661 102.317 65.5586 101.752 66.4025C101.188 67.2464 100.385 67.9039 99.4458 68.2917C98.5068 68.6796 97.4737 68.7803 96.4774 68.5811C95.4811 68.3819 94.5664 67.8918 93.849 67.1729C93.1316 66.4539 92.6438 65.5384 92.4475 64.5423C92.2511 63.5462 92.3549 62.5143 92.7458 61.5772C93.1368 60.6401 93.7972 59.84 94.6434 59.2782ZM118.127 85.3647H76.8726C76.6876 85.3846 76.5005 85.3654 76.3235 85.3083C76.1465 85.2512 75.9835 85.1575 75.8451 85.0333C75.7067 84.9091 75.596 84.7572 75.5202 84.5874C75.4444 84.4177 75.4053 84.2339 75.4053 84.048C75.4053 83.8621 75.4444 83.6783 75.5202 83.5086C75.596 83.3388 75.7067 83.1869 75.8451 83.0627C75.9835 82.9385 76.1465 82.8448 76.3235 82.7877C76.5005 82.7306 76.6876 82.7114 76.8726 82.7313H118.127C118.312 82.7114 118.499 82.7306 118.676 82.7877C118.853 82.8448 119.016 82.9385 119.155 83.0627C119.293 83.1869 119.404 83.3388 119.48 83.5086C119.555 83.6783 119.595 83.8621 119.595 84.048C119.595 84.2339 119.555 84.4177 119.48 84.5874C119.404 84.7572 119.293 84.9091 119.155 85.0333C119.016 85.1575 118.853 85.2512 118.676 85.3083C118.499 85.3654 118.312 85.3846 118.127 85.3647ZM76.8726 91.0884H118.127C118.312 91.1083 118.499 91.089 118.676 91.0319C118.853 90.9748 119.016 90.8811 119.155 90.7569C119.293 90.6327 119.404 90.4808 119.48 90.3111C119.555 90.1413 119.595 89.9575 119.595 89.7716C119.595 89.5858 119.555 89.402 119.48 89.2322C119.404 89.0625 119.293 88.9105 119.155 88.7863C119.016 88.6621 118.853 88.5684 118.676 88.5113C118.499 88.4542 118.312 88.435 118.127 88.4549H76.8726C76.6876 88.435 76.5005 88.4542 76.3235 88.5113C76.1465 88.5684 75.9835 88.6621 75.8451 88.7863C75.7067 88.9105 75.596 89.0625 75.5202 89.2322C75.4444 89.402 75.4053 89.5858 75.4053 89.7716C75.4053 89.9575 75.4444 90.1413 75.5202 90.3111C75.596 90.4808 75.7067 90.6327 75.8451 90.7569C75.9835 90.8811 76.1465 90.9748 76.3235 91.0319C76.5005 91.089 76.6876 91.1083 76.8726 91.0884ZM79.4779 129.417C79.1291 129.413 78.7958 129.272 78.5506 129.024C78.3053 128.776 78.1678 128.442 78.1678 128.093V97.4203C78.1479 97.2355 78.1671 97.0486 78.2242 96.8717C78.2814 96.6948 78.3752 96.5319 78.4995 96.3937C78.6238 96.2554 78.7758 96.1448 78.9457 96.0691C79.1156 95.9934 79.2995 95.9542 79.4855 95.9542C79.6716 95.9542 79.8555 95.9934 80.0254 96.0691C80.1953 96.1448 80.3473 96.2554 80.4716 96.3937C80.5959 96.5319 80.6897 96.6948 80.7468 96.8717C80.804 97.0486 80.8232 97.2355 80.8033 97.4203V128.093C80.8033 128.444 80.6637 128.781 80.4151 129.03C80.1666 129.278 79.8294 129.417 79.4779 129.417ZM93.8889 129.417H86.6982C86.3467 129.417 86.0096 129.278 85.761 129.03C85.5125 128.781 85.3728 128.444 85.3728 128.093V97.4203C85.3529 97.2355 85.3722 97.0486 85.4293 96.8717C85.4865 96.6948 85.5802 96.5319 85.7045 96.3937C85.8288 96.2554 85.9809 96.1448 86.1508 96.0691C86.3207 95.9934 86.5046 95.9542 86.6906 95.9542C86.8766 95.9542 87.0606 95.9934 87.2305 96.0691C87.4004 96.1448 87.5524 96.2554 87.6767 96.3937C87.801 96.5319 87.8948 96.6948 87.9519 96.8717C88.0091 97.0486 88.0283 97.2355 88.0084 97.4203V126.784H92.5787V97.4203C92.5588 97.2355 92.578 97.0486 92.6352 96.8717C92.6923 96.6948 92.7861 96.5319 92.9104 96.3937C93.0347 96.2554 93.1867 96.1448 93.3566 96.0691C93.5265 95.9934 93.7105 95.9542 93.8965 95.9542C94.0825 95.9542 94.2664 95.9934 94.4363 96.0691C94.6062 96.1448 94.7583 96.2554 94.8826 96.3937C95.0069 96.5319 95.1006 96.6948 95.1578 96.8717C95.2149 97.0486 95.2342 97.2355 95.2143 97.4203V128.093C95.2143 128.444 95.0746 128.781 94.8261 129.03C94.5775 129.278 94.2404 129.417 93.8889 129.417ZM101.11 129.417H108.316C108.49 129.417 108.661 129.383 108.821 129.316C108.981 129.25 109.126 129.152 109.248 129.029C109.37 128.905 109.466 128.759 109.531 128.599C109.596 128.438 109.628 128.266 109.626 128.093V97.4203C109.646 97.2355 109.627 97.0486 109.57 96.8717C109.513 96.6948 109.419 96.5319 109.295 96.3937C109.17 96.2554 109.018 96.1448 108.849 96.0691C108.679 95.9934 108.495 95.9542 108.309 95.9542C108.123 95.9542 107.939 95.9934 107.769 96.0691C107.599 96.1448 107.447 96.2554 107.323 96.3937C107.198 96.5319 107.105 96.6948 107.047 96.8717C106.99 97.0486 106.971 97.2355 106.991 97.4203V126.784H102.421V97.4203C102.441 97.2355 102.421 97.0486 102.364 96.8717C102.307 96.6948 102.213 96.5319 102.089 96.3937C101.965 96.2554 101.813 96.1448 101.643 96.0691C101.473 95.9934 101.289 95.9542 101.103 95.9542C100.917 95.9542 100.733 95.9934 100.563 96.0691C100.393 96.1448 100.241 96.2554 100.117 96.3937C99.9924 96.5319 99.8987 96.6948 99.8415 96.8717C99.7844 97.0486 99.7651 97.2355 99.785 97.4203V128.093C99.785 128.267 99.8193 128.439 99.8859 128.6C99.9525 128.761 100.05 128.907 100.173 129.03C100.296 129.153 100.442 129.25 100.603 129.317C100.764 129.383 100.936 129.417 101.11 129.417ZM115.522 129.417C115.171 129.417 114.834 129.278 114.585 129.03C114.337 128.781 114.197 128.444 114.197 128.093V97.4203C114.177 97.2355 114.196 97.0486 114.254 96.8717C114.311 96.6948 114.404 96.5319 114.529 96.3937C114.653 96.2554 114.805 96.1448 114.975 96.0691C115.145 95.9934 115.329 95.9542 115.515 95.9542C115.701 95.9542 115.885 95.9934 116.055 96.0691C116.225 96.1448 116.377 96.2554 116.501 96.3937C116.625 96.5319 116.719 96.6948 116.776 96.8717C116.833 97.0486 116.853 97.2355 116.833 97.4203V128.093C116.833 128.442 116.695 128.776 116.45 129.024C116.205 129.272 115.871 129.413 115.522 129.417ZM85.8299 146.908C85.6558 146.908 85.4835 146.874 85.3227 146.807C85.1619 146.74 85.0158 146.643 84.8927 146.52C84.7696 146.397 84.672 146.251 84.6054 146.09C84.5388 145.93 84.5045 145.757 84.5045 145.583V137.12C84.5045 136.49 84.2541 135.886 83.8084 135.441C83.3627 134.995 82.7582 134.745 82.1279 134.745C81.4976 134.745 80.8931 134.995 80.4474 135.441C80.0018 135.886 79.7514 136.49 79.7514 137.12V145.294C79.7514 145.645 79.6117 145.982 79.3632 146.231C79.1146 146.479 78.7775 146.619 78.426 146.619C78.0745 146.619 77.7373 146.479 77.4888 146.231C77.2402 145.982 77.1006 145.645 77.1006 145.294V137.12C77.1713 135.837 77.731 134.631 78.6646 133.748C79.5983 132.865 80.8349 132.373 82.1203 132.373C83.4058 132.373 84.6424 132.865 85.576 133.748C86.5096 134.631 87.0693 135.837 87.14 137.12V145.629C87.1321 145.971 86.9905 146.296 86.7457 146.535C86.5008 146.774 86.1721 146.908 85.8299 146.908ZM99.7867 146.515C100.032 146.763 100.365 146.904 100.714 146.908C101.063 146.916 101.401 146.786 101.655 146.547C101.909 146.308 102.058 145.978 102.07 145.629V137.12C102.07 135.786 101.539 134.506 100.595 133.562C99.651 132.619 98.3703 132.089 97.035 132.089C95.6996 132.089 94.4189 132.619 93.4747 133.562C92.5305 134.506 92 135.786 92 137.12V145.294C92 145.645 92.1396 145.982 92.3882 146.231C92.6368 146.479 92.9739 146.619 93.3254 146.619C93.6769 146.619 94.014 146.479 94.2626 146.231C94.5111 145.982 94.6508 145.645 94.6508 145.294V137.12C94.6508 136.49 94.9012 135.886 95.3469 135.441C95.7926 134.995 96.397 134.745 97.0273 134.745C97.6576 134.745 98.2621 134.995 98.7078 135.441C99.1535 135.886 99.4039 136.49 99.4039 137.12V145.583C99.4039 145.932 99.5414 146.267 99.7867 146.515ZM115.385 146.908C115.211 146.908 115.039 146.874 114.878 146.807C114.717 146.74 114.571 146.643 114.448 146.52C114.325 146.397 114.227 146.251 114.161 146.09C114.094 145.93 114.06 145.757 114.06 145.583V137.12C114.06 136.49 113.809 135.886 113.364 135.441C112.918 134.995 112.313 134.745 111.683 134.745C111.053 134.745 110.448 134.995 110.003 135.441C109.557 135.886 109.307 136.49 109.307 137.12V145.294C109.272 145.619 109.118 145.919 108.874 146.138C108.631 146.356 108.316 146.477 107.989 146.477C107.662 146.477 107.346 146.356 107.103 146.138C106.86 145.919 106.706 145.619 106.671 145.294V137.12C106.742 135.837 107.301 134.631 108.235 133.748C109.169 132.865 110.405 132.373 111.691 132.373C112.976 132.373 114.213 132.865 115.146 133.748C116.08 134.631 116.64 135.837 116.71 137.12V145.629C116.699 145.972 116.554 146.298 116.306 146.536C116.059 146.775 115.729 146.908 115.385 146.908ZM171.478 111.517H166.466C166.117 111.517 165.782 111.379 165.534 111.134C165.286 110.889 165.145 110.556 165.141 110.207V101.987C165.141 101.636 165.28 101.299 165.529 101.051C165.778 100.803 166.115 100.663 166.466 100.663C166.818 100.663 167.155 100.803 167.403 101.051C167.652 101.299 167.792 101.636 167.792 101.987V108.883H171.478C171.663 108.863 171.85 108.882 172.027 108.94C172.204 108.997 172.367 109.09 172.506 109.215C172.644 109.339 172.755 109.491 172.831 109.66C172.906 109.83 172.946 110.014 172.946 110.2C172.946 110.386 172.906 110.569 172.831 110.739C172.755 110.909 172.644 111.061 172.506 111.185C172.367 111.309 172.204 111.403 172.027 111.46C171.85 111.517 171.663 111.536 171.478 111.517ZM97.5002 194.842C88.9674 194.848 80.4706 193.737 72.2263 191.539C71.2985 191.197 70.5323 190.52 70.0784 189.642C69.6245 188.764 69.5158 187.748 69.7736 186.794C70.0314 185.84 70.6371 185.017 71.4715 184.487C72.306 183.956 73.3089 183.757 74.283 183.928C89.5506 187.992 105.617 187.992 120.885 183.928C121.846 183.788 122.825 184.005 123.637 184.537C124.449 185.07 125.039 185.88 125.293 186.817C125.548 187.753 125.451 188.751 125.021 189.621C124.591 190.49 123.856 191.173 122.957 191.539C114.653 193.751 106.094 194.862 97.5002 194.842ZM23.4459 111.516H28.4427C28.7916 111.516 29.1265 111.378 29.3746 111.133C29.6227 110.888 29.7641 110.555 29.7681 110.207V101.987C29.788 101.802 29.7688 101.615 29.7117 101.438C29.6545 101.261 29.5607 101.098 29.4364 100.96C29.3121 100.822 29.1601 100.711 28.9902 100.635C28.8203 100.56 28.6364 100.521 28.4504 100.521C28.2643 100.521 28.0804 100.56 27.9105 100.635C27.7406 100.711 27.5886 100.822 27.4643 100.96C27.34 101.098 27.2462 101.261 27.1891 101.438C27.1319 101.615 27.1127 101.802 27.1326 101.987V108.882H23.4459C23.2609 108.862 23.0738 108.882 22.8968 108.939C22.7198 108.996 22.5568 109.09 22.4184 109.214C22.28 109.338 22.1693 109.49 22.0935 109.66C22.0177 109.829 21.9786 110.013 21.9786 110.199C21.9786 110.385 22.0177 110.569 22.0935 110.738C22.1693 110.908 22.28 111.06 22.4184 111.184C22.5568 111.309 22.7198 111.402 22.8968 111.459C23.0738 111.516 23.2609 111.536 23.4459 111.516ZM43.2054 111.517H38.1933C37.8682 111.482 37.5675 111.328 37.3491 111.085C37.1306 110.842 37.0098 110.526 37.0098 110.2C37.0098 109.873 37.1306 109.558 37.3491 109.315C37.5675 109.072 37.8682 108.918 38.1933 108.883H41.88V101.987C41.88 101.636 42.0196 101.299 42.2682 101.051C42.5167 100.803 42.8539 100.663 43.2054 100.663C43.5569 100.663 43.894 100.803 44.1426 101.051C44.3911 101.299 44.5308 101.636 44.5308 101.987V110.207C44.5268 110.556 44.3853 110.889 44.1372 111.134C43.8891 111.379 43.5543 111.517 43.2054 111.517ZM52.9546 111.516H57.8905C58.0684 111.524 58.246 111.496 58.4129 111.434C58.5798 111.372 58.7325 111.277 58.8619 111.155C58.9913 111.033 59.0947 110.886 59.166 110.723C59.2373 110.56 59.275 110.384 59.2769 110.207V101.987C59.2968 101.802 59.2775 101.615 59.2204 101.438C59.1632 101.261 59.0695 101.098 58.9452 100.96C58.8209 100.822 58.6688 100.711 58.4989 100.635C58.329 100.56 58.1451 100.521 57.9591 100.521C57.7731 100.521 57.5891 100.56 57.4192 100.635C57.2493 100.711 57.0973 100.822 56.973 100.96C56.8487 101.098 56.7549 101.261 56.6978 101.438C56.6406 101.615 56.6214 101.802 56.6413 101.987V108.882H52.9546C52.7696 108.862 52.5826 108.882 52.4055 108.939C52.2285 108.996 52.0655 109.09 51.9271 109.214C51.7887 109.338 51.678 109.49 51.6022 109.66C51.5265 109.829 51.4873 110.013 51.4873 110.199C51.4873 110.385 51.5265 110.569 51.6022 110.738C51.678 110.908 51.7887 111.06 51.9271 111.184C52.0655 111.308 52.2285 111.402 52.4055 111.459C52.5826 111.516 52.7696 111.536 52.9546 111.516ZM43.2049 130.3H38.1928C37.8412 130.3 37.5041 130.161 37.2556 129.912C37.007 129.664 36.8674 129.327 36.8674 128.976C36.8674 128.625 37.007 128.288 37.2556 128.04C37.5041 127.791 37.8412 127.652 38.1928 127.652H41.8795V120.756C41.8795 120.405 42.0191 120.068 42.2677 119.82C42.5162 119.571 42.8534 119.432 43.2049 119.432C43.5564 119.432 43.8935 119.571 44.1421 119.82C44.3906 120.068 44.5303 120.405 44.5303 120.756V128.976C44.5303 129.327 44.3906 129.664 44.1421 129.912C43.8935 130.161 43.5564 130.3 43.2049 130.3ZM52.9553 130.3H57.8912C58.0703 130.309 58.2492 130.28 58.4171 130.218C58.5851 130.155 58.7385 130.058 58.8681 129.935C58.9977 129.811 59.1008 129.662 59.1712 129.497C59.2415 129.332 59.2777 129.155 59.2775 128.976V120.756C59.2425 120.431 59.0886 120.131 58.8454 119.912C58.6021 119.694 58.2867 119.573 57.9598 119.573C57.6328 119.573 57.3174 119.694 57.0742 119.912C56.8309 120.131 56.677 120.431 56.642 120.756V127.652H52.9553C52.6038 127.652 52.2666 127.791 52.0181 128.04C51.7695 128.288 51.6299 128.625 51.6299 128.976C51.6299 129.327 51.7695 129.664 52.0181 129.912C52.2666 130.161 52.6038 130.3 52.9553 130.3ZM141.679 111.516H136.606C136.258 111.516 135.923 111.378 135.675 111.133C135.426 110.888 135.285 110.555 135.281 110.207V101.987C135.261 101.802 135.28 101.615 135.338 101.438C135.395 101.261 135.488 101.098 135.613 100.96C135.737 100.822 135.889 100.711 136.059 100.635C136.229 100.56 136.413 100.521 136.599 100.521C136.785 100.521 136.969 100.56 137.139 100.635C137.309 100.711 137.461 100.822 137.585 100.96C137.709 101.098 137.803 101.261 137.86 101.438C137.917 101.615 137.937 101.802 137.917 101.987V108.882H141.679C141.864 108.862 142.052 108.882 142.229 108.939C142.406 108.996 142.569 109.09 142.707 109.214C142.845 109.338 142.956 109.49 143.032 109.66C143.108 109.829 143.147 110.013 143.147 110.199C143.147 110.385 143.108 110.569 143.032 110.738C142.956 110.908 142.845 111.06 142.707 111.184C142.569 111.308 142.406 111.402 142.229 111.459C142.052 111.516 141.864 111.536 141.679 111.516ZM151.354 111.517H156.366C156.551 111.536 156.738 111.517 156.915 111.46C157.092 111.403 157.255 111.309 157.393 111.185C157.532 111.061 157.642 110.909 157.718 110.739C157.794 110.569 157.833 110.386 157.833 110.2C157.833 110.014 157.794 109.83 157.718 109.66C157.642 109.491 157.532 109.339 157.393 109.215C157.255 109.09 157.092 108.997 156.915 108.94C156.738 108.882 156.551 108.863 156.366 108.883H152.679V101.987C152.679 101.636 152.539 101.299 152.291 101.051C152.042 100.803 151.705 100.663 151.354 100.663C151.002 100.663 150.665 100.803 150.417 101.051C150.168 101.299 150.028 101.636 150.028 101.987V110.207C150.032 110.556 150.174 110.889 150.422 111.134C150.67 111.379 151.005 111.517 151.354 111.517ZM141.68 130.3H136.607C136.433 130.3 136.26 130.266 136.1 130.2C135.939 130.133 135.793 130.035 135.67 129.912C135.547 129.789 135.449 129.643 135.382 129.483C135.316 129.322 135.281 129.15 135.281 128.976V120.756C135.316 120.431 135.47 120.131 135.714 119.912C135.957 119.694 136.272 119.573 136.599 119.573C136.926 119.573 137.242 119.694 137.485 119.912C137.728 120.131 137.882 120.431 137.917 120.756V127.652H141.68C142.031 127.652 142.368 127.791 142.617 128.04C142.866 128.288 143.005 128.625 143.005 128.976C143.005 129.327 142.866 129.664 142.617 129.912C142.368 130.161 142.031 130.3 141.68 130.3ZM151.354 130.3H156.366C156.717 130.3 157.054 130.161 157.303 129.912C157.552 129.664 157.691 129.327 157.691 128.976C157.691 128.625 157.552 128.288 157.303 128.04C157.054 127.791 156.717 127.652 156.366 127.652H152.679V120.756C152.679 120.405 152.539 120.068 152.291 119.82C152.042 119.571 151.705 119.432 151.354 119.432C151.002 119.432 150.665 119.571 150.417 119.82C150.168 120.068 150.028 120.405 150.028 120.756V128.976C150.028 129.15 150.063 129.322 150.129 129.483C150.196 129.643 150.293 129.789 150.417 129.912C150.54 130.035 150.686 130.133 150.846 130.2C151.007 130.266 151.18 130.3 151.354 130.3Z" fill="white"/>
</svg>
