<?xml version="1.0" encoding="UTF-8"?>
<svg id="Layer_1" data-name="Layer 1" xmlns="http://www.w3.org/2000/svg" viewBox="0 0 242 16">
  <defs>
    <style>
      .cls-1 {
        fill: #e21833;
      }
    </style>
  </defs>
  <path d="M241.66,10.98c0,2.93-1.85,4.91-6.05,4.91-2.57,0-4.82-1.08-5.98-2.79l2.22-1.98c1.08,1.25,2.46,1.76,3.94,1.76,1.83,0,2.68-.51,2.68-1.67,0-.99-.53-1.43-3.43-2.09-2.84-.66-4.82-1.56-4.82-4.6,0-2.79,2.46-4.51,5.5-4.51,2.4,0,4.16.9,5.61,2.42l-2.22,2.16c-.99-1.01-2.09-1.58-3.5-1.58-1.65,0-2.2.7-2.2,1.39,0,.97.66,1.28,3.1,1.85s5.15,1.41,5.15,4.75Z"/>
  <path d="M227.62,3.41l-2.86,1.32c-.55-1.06-1.43-1.67-2.82-1.67-2.31,0-3.63,2.02-3.63,4.88s1.34,4.88,3.65,4.88c1.39,0,2.2-.59,3.01-1.96l2.6,1.54c-1.06,2.18-2.9,3.48-5.7,3.48-4.03,0-6.73-3.08-6.73-7.94s2.82-7.94,6.84-7.94c2.9,0,4.66,1.41,5.63,3.41Z"/>
  <path d="M212.86,7.92c0,4.97-2.79,7.96-6.8,7.96s-6.78-2.95-6.78-7.92,2.79-7.96,6.82-7.96,6.75,2.95,6.75,7.92ZM209.7,7.96c0-3.12-1.5-4.91-3.65-4.91s-3.59,1.74-3.59,4.86,1.5,4.91,3.65,4.91,3.59-1.74,3.59-4.86Z"/>
  <path d="M197.07,7.94c0,5.41-3.92,7.7-7.88,7.7h-4.6V.24h4.82c4.4,0,7.66,2.07,7.66,7.7ZM193.9,7.94c0-3.15-1.34-4.71-4.6-4.71h-1.63v9.42h1.52c3.23,0,4.71-1.89,4.71-4.71Z"/>
  <path class="cls-1" d="M174.25,15.64h-3.08v-5.65c0-.84.04-2.79.04-3.39-.22.57-.68,1.67-1.08,2.55l-3.12,6.84-3.12-6.84c-.4-.88-.86-1.98-1.08-2.55,0,.59.04,2.55.04,3.39v5.65h-3.01V.24h2.97l3.21,6.97c.4.86.86,2.02,1.06,2.57.2-.57.64-1.69,1.03-2.57l3.1-6.97h3.04v15.4Z"/>
  <path class="cls-1" d="M156.56,15.64h-11.02V.24h10.69v3.01h-7.61v2.66h4.42v2.99h-4.42v3.72h7.94v3.01Z"/>
  <path class="cls-1" d="M142.57,3.28h-4.42v12.36h-3.08V3.28h-4.42V.24h11.92v3.04Z"/>
  <path class="cls-1" d="M128.96,10.98c0,2.93-1.85,4.91-6.05,4.91-2.57,0-4.82-1.08-5.98-2.79l2.22-1.98c1.08,1.25,2.46,1.76,3.94,1.76,1.83,0,2.68-.51,2.68-1.67,0-.99-.53-1.43-3.43-2.09-2.84-.66-4.82-1.56-4.82-4.6,0-2.79,2.46-4.51,5.5-4.51,2.4,0,4.16.9,5.61,2.42l-2.22,2.16c-.99-1.01-2.09-1.58-3.5-1.58-1.65,0-2.2.7-2.2,1.39,0,.97.66,1.28,3.1,1.85s5.15,1.41,5.15,4.75Z"/>
  <path class="cls-1" d="M116.39.24l-5.83,9.31v6.09h-3.08v-6.03L101.65.24h3.54l2.18,3.65c.55.92,1.39,2.44,1.67,3.01.29-.57,1.1-2.05,1.67-3.01l2.18-3.65h3.5Z"/>
  <path class="cls-1" d="M101.03,10.98c0,2.93-1.85,4.91-6.05,4.91-2.57,0-4.82-1.08-5.98-2.79l2.22-1.98c1.08,1.25,2.46,1.76,3.94,1.76,1.83,0,2.68-.51,2.68-1.67,0-.99-.53-1.43-3.43-2.09-2.84-.66-4.82-1.56-4.82-4.6,0-2.79,2.46-4.51,5.5-4.51,2.4,0,4.16.9,5.61,2.42l-2.22,2.16c-.99-1.01-2.09-1.58-3.5-1.58-1.65,0-2.2.7-2.2,1.39,0,.97.66,1.28,3.1,1.85,2.44.57,5.15,1.41,5.15,4.75Z"/>
  <path class="cls-1" d="M79.4,15.64h-2.75l-5.65-8.4c-.37-.57-.88-1.34-1.08-1.74,0,.57.04,2.51.04,3.37v6.78h-3.04V.24h2.95l5.46,8.14c.37.57.88,1.34,1.08,1.74,0-.57-.04-2.51-.04-3.37V.24h3.04v15.4Z"/>
  <path class="cls-1" d="M63.66,9.68c0,3.96-2.62,6.2-6.18,6.2-4.03,0-6.73-3.08-6.73-7.94s2.82-7.94,6.84-7.94c3.15,0,4.82,1.47,5.83,3.85l-2.93,1.21c-.57-1.14-1.28-2-2.95-2-2.31,0-3.63,2.02-3.63,4.88s1.34,4.93,3.65,4.93c2.11,0,2.84-.99,3.01-2.33h-2.44v-2.88h5.52v2.02Z"/>
  <path class="cls-1" d="M47.39,15.64h-3.08V.24h3.08v15.4Z"/>
  <path class="cls-1" d="M40.83,10.98c0,2.93-1.85,4.91-6.05,4.91-2.57,0-4.82-1.08-5.98-2.79l2.22-1.98c1.08,1.25,2.46,1.76,3.94,1.76,1.83,0,2.68-.51,2.68-1.67,0-.99-.53-1.43-3.43-2.09-2.84-.66-4.82-1.56-4.82-4.6,0-2.79,2.46-4.51,5.5-4.51,2.4,0,4.16.9,5.61,2.42l-2.22,2.16c-.99-1.01-2.09-1.58-3.5-1.58-1.65,0-2.2.7-2.2,1.39,0,.97.66,1.28,3.1,1.85,2.44.57,5.15,1.41,5.15,4.75Z"/>
  <path class="cls-1" d="M26.58,15.64h-11.02V.24h10.69v3.01h-7.61v2.66h4.42v2.99h-4.42v3.72h7.94v3.01Z"/>
  <path class="cls-1" d="M12.47,7.94c0,5.41-3.92,7.7-7.88,7.7H0V.24h4.82c4.4,0,7.66,2.07,7.66,7.7ZM9.31,7.94c0-3.15-1.34-4.71-4.6-4.71h-1.63v9.42h1.52c3.23,0,4.71-1.89,4.71-4.71Z"/>
</svg>